<svg viewBox="0 0 1024 1024" xmlns="http://www.w3.org/2000/svg"><path d="M960 24H704c-22.09 0-40 17.91-40 40s17.91 40 40 40h216v816H704c-22.09 0-40 17.91-40 40s17.91 40 40 40h256c22.083-.02 39.98-17.917 40-39.998V64c-.01-22.087-17.913-39.99-40-40zM160.563 552H768c22.09 0 40-17.91 40-40s-17.91-40-40-40H160.563l91.718-91.72c7.185-7.228 11.625-17.19 11.625-28.19 0-22.09-17.907-39.996-39.996-39.996-11 0-20.963 4.44-28.194 11.627l-159.998 160c-.364.362-.473.858-.82 1.233-3.213 3.312-5.86 7.196-7.767 11.482l-.1.252-.01.128c-1.607 4.135-2.538 8.92-2.538 13.923 0 2.29.195 4.537.57 6.72l-.033-.233c.235 1.842.56 3.464.99 5.043l-.06-.26c1.644 7.152 5.07 13.34 9.783 18.286l-.015-.016 160 160.03c7.24 7.233 17.238 11.706 28.28 11.706 22.102 0 40.018-17.916 40.018-40.017 0-11.058-4.485-21.07-11.736-28.312z"/></svg>